<svg class="_XD2a764x49B1E2F9f8X _xQT_qSXfwWf6ZhwRle4 DTyjKhtXBNaebZa5L0l9" viewBox="0 0 97 21" fill="none" xmlns="http://www.w3.org/2000/svg">
    <path fill-rule="evenodd" clip-rule="evenodd" d="M16.0208 0.859681V11.8158C16.0208 15.4744 14.3957 16.9937 10.5803 16.9937C6.76642 16.9937 5.13991 15.4744 5.13991 11.8158V0.379761H1.46656C1.14464 0.379761 0.984375 0.539949 0.984375 0.859681V11.9956C0.984375 18.1138 4.89952 20.253 10.5803 20.253C16.2626 20.253 20.1763 18.1138 20.1763 11.9956V0.379761H16.503C16.1824 0.379761 16.0208 0.539949 16.0208 0.859681Z" fill="currentColor"></path>
    <path fill-rule="evenodd" clip-rule="evenodd" d="M69.2766 3.55875C69.5775 3.55875 69.7181 3.45892 69.8179 3.2387L70.8821 0.619553C70.9425 0.460023 70.8821 0.379761 70.7218 0.379761H55.9258C54.5411 0.379761 54.0195 0.799649 54.0195 1.73924V18.7532C54.0195 19.5532 54.4202 19.913 55.4844 19.913H69.2766C69.5775 19.913 69.7181 19.8129 69.8179 19.5934L70.8821 16.9738C70.9425 16.8139 70.8821 16.734 70.7218 16.734H58.0949V13.2752C58.0949 12.0755 58.7571 11.5355 60.5424 11.5355H66.0236C66.3259 11.5355 66.4651 11.4361 66.5663 11.2162L67.5897 8.69688C67.6501 8.53672 67.5897 8.45706 67.4294 8.45706H58.0949V3.55875H69.2766Z" fill="currentColor"></path>
    <path fill-rule="evenodd" clip-rule="evenodd" d="M39.3809 16.7742H32.1312V13.1952C32.1312 11.9956 32.7933 11.456 34.5815 11.456H39.3809C41.6892 11.456 42.3317 12.3355 42.3317 14.1352C42.3317 15.9345 41.6892 16.7742 39.3809 16.7742ZM32.1312 3.51862H38.6175C40.7867 3.51862 41.3884 4.33196 41.3884 6.0177C41.3884 7.70372 40.7867 8.51712 38.6175 8.51712H32.1312V3.51862ZM43.2356 9.61654C44.841 8.77682 45.5031 7.19748 45.5031 5.33814C45.5031 1.01953 41.9704 0.379761 38.3167 0.379761H29.9649C28.5801 0.379761 28.0586 0.799649 28.0586 1.73924V18.7532C28.0586 19.5532 28.4592 19.913 29.5234 19.913H39.8026C43.677 19.913 46.4478 18.4136 46.4478 14.5149C46.4478 12.1757 45.4441 10.1963 43.2356 9.61654Z" fill="currentColor"></path>
    <path fill-rule="evenodd" clip-rule="evenodd" d="M88.8654 9.4365H82.0402V3.51895H88.8654C91.4155 3.51895 91.9778 4.49835 91.9778 6.47774C91.9778 8.47694 91.4155 9.4365 88.8654 9.4365ZM96.534 19.5731L92.1381 12.0556C94.3269 11.496 96.0926 10.0567 96.0926 6.3978C96.0926 1.65964 93.1418 0.379761 88.2637 0.379761H79.8725C78.4864 0.379761 77.9648 0.799649 77.9648 1.73924V19.4332C77.9648 19.7528 78.1251 19.913 78.447 19.913H82.0402V14.2151C82.0402 13.0155 82.7024 12.4755 84.4891 12.4755H88.1035L92.0776 19.5934C92.1985 19.793 92.3194 19.913 92.6203 19.913H96.3541C96.6156 19.913 96.6156 19.6928 96.534 19.5731Z" fill="currentColor"></path>
</svg>
